<?xml version="1.0" standalone="no"?>
<!DOCTYPE svg PUBLIC "-//W3C//DTD SVG 20010904//EN"
 "http://www.w3.org/TR/2001/REC-SVG-20010904/DTD/svg10.dtd">
<svg version="1.0" xmlns="http://www.w3.org/2000/svg"
 width="192.000000pt" height="192.000000pt" viewBox="0 0 192.000000 192.000000"
 preserveAspectRatio="xMidYMid meet">
<metadata>
Created by potrace 1.11, written by Peter Selinger 2001-2013
</metadata>
<g transform="translate(0.000000,192.000000) scale(0.100000,-0.100000)"
fill="#000000" stroke="none">
<path d="M263 1704 c-66 -33 -65 -15 -65 -729 0 -626 3 -725 23 -725 6 0 8 -4
5 -9 -3 -4 6 -13 20 -20 16 -7 22 -16 18 -24 -5 -8 -2 -8 9 2 9 7 17 10 17 5
0 -5 33 -9 72 -9 55 0 72 -3 70 -13 -1 -8 2 -11 8 -7 6 3 8 11 4 16 -7 12 34
8 55 -5 10 -6 12 -5 7 2 -5 8 1 12 14 12 13 0 19 -4 14 -12 -5 -8 -3 -8 7 -2
20 13 181 13 198 0 12 -8 13 -8 7 2 -6 10 3 12 41 10 33 -2 47 -7 45 -16 -1
-8 2 -11 8 -7 6 3 8 10 5 15 -2 4 13 8 35 8 29 1 38 -3 33 -11 -5 -9 -2 -8 8
0 17 14 75 13 98 -1 10 -6 12 -5 7 2 -5 8 1 12 14 12 14 0 19 -4 14 -12 -6
-10 -4 -10 7 -2 17 13 98 13 118 0 9 -6 12 -5 7 2 -9 15 134 13 153 -2 11 -8
13 -8 7 2 -5 8 0 12 14 12 14 0 19 -4 14 -12 -6 -10 -4 -10 7 -2 17 13 98 13
118 0 9 -6 12 -5 8 2 -5 7 16 10 63 10 39 0 76 5 83 11 8 6 17 9 20 6 4 -3 5
-2 2 2 -3 3 4 12 14 19 25 18 33 69 31 197 -1 77 3 113 12 125 7 9 8 13 2 9
-17 -10 -18 451 -1 472 7 9 8 12 1 8 -8 -5 -11 65 -11 253 -1 190 2 258 11
253 6 -3 6 0 -1 8 -7 7 -13 24 -13 37 0 41 -30 90 -65 106 -29 14 -113 16
-697 16 -582 0 -667 -2 -695 -16z"/>
</g>
</svg>
